<svg width="125" height="58" viewBox="0 0 125 58" fill="none" xmlns="http://www.w3.org/2000/svg">
<path d="M0 6C0 2.68629 2.68629 0 6 0H119C122.314 0 125 2.68629 125 6V52C125 55.3137 122.314 58 119 58H6C2.68629 58 0 55.3137 0 52V6Z" fill="#3A5F56"/>
<path d="M37.7734 31.4785H39.6484C39.5508 32.377 39.2936 33.181 38.877 33.8906C38.4603 34.6003 37.8711 35.1634 37.1094 35.5801C36.3477 35.9902 35.3971 36.1953 34.2578 36.1953C33.4245 36.1953 32.666 36.0391 31.9824 35.7266C31.3053 35.4141 30.7227 34.9714 30.2344 34.3984C29.7461 33.819 29.3685 33.1257 29.1016 32.3184C28.8411 31.5046 28.7109 30.5996 28.7109 29.6035V28.1875C28.7109 27.1914 28.8411 26.2897 29.1016 25.4824C29.3685 24.6686 29.7493 23.972 30.2441 23.3926C30.7454 22.8132 31.3477 22.3672 32.0508 22.0547C32.7539 21.7422 33.5449 21.5859 34.4238 21.5859C35.498 21.5859 36.4062 21.7878 37.1484 22.1914C37.8906 22.5951 38.4668 23.1549 38.877 23.8711C39.2936 24.5807 39.5508 25.4043 39.6484 26.3418H37.7734C37.6823 25.6777 37.513 25.1081 37.2656 24.6328C37.0182 24.151 36.6667 23.7799 36.2109 23.5195C35.7552 23.2591 35.1595 23.1289 34.4238 23.1289C33.7923 23.1289 33.2357 23.2493 32.7539 23.4902C32.2786 23.7311 31.8783 24.0729 31.5527 24.5156C31.2337 24.9583 30.9928 25.4889 30.8301 26.1074C30.6673 26.7259 30.5859 27.4128 30.5859 28.168V29.6035C30.5859 30.3001 30.6576 30.9544 30.8008 31.5664C30.9505 32.1784 31.1751 32.7155 31.4746 33.1777C31.7741 33.64 32.1549 34.0046 32.6172 34.2715C33.0794 34.5319 33.6263 34.6621 34.2578 34.6621C35.0586 34.6621 35.6966 34.5352 36.1719 34.2812C36.6471 34.0273 37.0052 33.6628 37.2461 33.1875C37.4935 32.7122 37.6693 32.1426 37.7734 31.4785ZM41.4648 30.834V30.6094C41.4648 29.8477 41.5755 29.1413 41.7969 28.4902C42.0182 27.8327 42.3372 27.263 42.7539 26.7812C43.1706 26.293 43.6751 25.9154 44.2676 25.6484C44.86 25.375 45.5241 25.2383 46.2598 25.2383C47.002 25.2383 47.6693 25.375 48.2617 25.6484C48.8607 25.9154 49.3685 26.293 49.7852 26.7812C50.2083 27.263 50.5306 27.8327 50.752 28.4902C50.9733 29.1413 51.084 29.8477 51.084 30.6094V30.834C51.084 31.5957 50.9733 32.3021 50.752 32.9531C50.5306 33.6042 50.2083 34.1738 49.7852 34.6621C49.3685 35.1439 48.8639 35.5215 48.2715 35.7949C47.6855 36.0618 47.0215 36.1953 46.2793 36.1953C45.5371 36.1953 44.8698 36.0618 44.2773 35.7949C43.6849 35.5215 43.1771 35.1439 42.7539 34.6621C42.3372 34.1738 42.0182 33.6042 41.7969 32.9531C41.5755 32.3021 41.4648 31.5957 41.4648 30.834ZM43.2715 30.6094V30.834C43.2715 31.3613 43.3333 31.8594 43.457 32.3281C43.5807 32.7904 43.7663 33.2005 44.0137 33.5586C44.2676 33.9167 44.5833 34.1999 44.9609 34.4082C45.3385 34.61 45.778 34.7109 46.2793 34.7109C46.7741 34.7109 47.207 34.61 47.5781 34.4082C47.9557 34.1999 48.2682 33.9167 48.5156 33.5586C48.763 33.2005 48.9486 32.7904 49.0723 32.3281C49.2025 31.8594 49.2676 31.3613 49.2676 30.834V30.6094C49.2676 30.0885 49.2025 29.597 49.0723 29.1348C48.9486 28.666 48.7598 28.2526 48.5059 27.8945C48.2585 27.5299 47.946 27.2435 47.5684 27.0352C47.1973 26.8268 46.7611 26.7227 46.2598 26.7227C45.765 26.7227 45.3288 26.8268 44.9512 27.0352C44.5801 27.2435 44.2676 27.5299 44.0137 27.8945C43.7663 28.2526 43.5807 28.666 43.457 29.1348C43.3333 29.597 43.2715 30.0885 43.2715 30.6094ZM55.1562 27.6895V36H53.3496V25.4336H55.0586L55.1562 27.6895ZM54.7266 30.3164L53.9746 30.2871C53.9811 29.5645 54.0885 28.8971 54.2969 28.2852C54.5052 27.6667 54.7982 27.1296 55.1758 26.6738C55.5534 26.2181 56.0026 25.8665 56.5234 25.6191C57.0508 25.3652 57.6335 25.2383 58.2715 25.2383C58.7923 25.2383 59.2611 25.3099 59.6777 25.4531C60.0944 25.5898 60.4492 25.8112 60.7422 26.1172C61.0417 26.4232 61.2695 26.8203 61.4258 27.3086C61.582 27.7904 61.6602 28.3796 61.6602 29.0762V36H59.8438V29.0566C59.8438 28.5033 59.7624 28.0605 59.5996 27.7285C59.4368 27.39 59.1992 27.1458 58.8867 26.9961C58.5742 26.8398 58.1901 26.7617 57.7344 26.7617C57.2852 26.7617 56.875 26.8561 56.5039 27.0449C56.1393 27.2337 55.8236 27.4941 55.5566 27.8262C55.2962 28.1582 55.0911 28.5391 54.9414 28.9688C54.7982 29.3919 54.7266 29.8411 54.7266 30.3164ZM68.8281 25.4336V26.8203H63.1152V25.4336H68.8281ZM65.0488 22.8652H66.8555V33.3828C66.8555 33.7409 66.9108 34.0111 67.0215 34.1934C67.1322 34.3757 67.2754 34.4961 67.4512 34.5547C67.627 34.6133 67.8158 34.6426 68.0176 34.6426C68.1673 34.6426 68.3236 34.6296 68.4863 34.6035C68.6556 34.571 68.7826 34.5449 68.8672 34.5254L68.877 36C68.7337 36.0456 68.5449 36.0879 68.3105 36.127C68.0827 36.1725 67.806 36.1953 67.4805 36.1953C67.0378 36.1953 66.6309 36.1074 66.2598 35.9316C65.8887 35.7559 65.5924 35.4629 65.3711 35.0527C65.1562 34.6361 65.0488 34.0762 65.0488 33.373V22.8652ZM77.1777 34.1934V28.7539C77.1777 28.3372 77.0931 27.9759 76.9238 27.6699C76.7611 27.3574 76.5137 27.1165 76.1816 26.9473C75.8496 26.778 75.4395 26.6934 74.9512 26.6934C74.4954 26.6934 74.0951 26.7715 73.75 26.9277C73.4115 27.084 73.1445 27.2891 72.9492 27.543C72.7604 27.7969 72.666 28.0703 72.666 28.3633H70.8594C70.8594 27.9857 70.957 27.6113 71.1523 27.2402C71.3477 26.8691 71.6276 26.5339 71.9922 26.2344C72.3633 25.9284 72.806 25.6875 73.3203 25.5117C73.8411 25.3294 74.4206 25.2383 75.0586 25.2383C75.8268 25.2383 76.5039 25.3685 77.0898 25.6289C77.6823 25.8893 78.1445 26.2832 78.4766 26.8105C78.8151 27.3314 78.9844 27.9857 78.9844 28.7734V33.6953C78.9844 34.0469 79.0137 34.4212 79.0723 34.8184C79.1374 35.2155 79.2318 35.5573 79.3555 35.8438V36H77.4707C77.3796 35.7917 77.3079 35.515 77.2559 35.1699C77.2038 34.8184 77.1777 34.4928 77.1777 34.1934ZM77.4902 29.5938L77.5098 30.8633H75.6836C75.1693 30.8633 74.7103 30.9056 74.3066 30.9902C73.903 31.0684 73.5645 31.1888 73.291 31.3516C73.0176 31.5143 72.8092 31.7194 72.666 31.9668C72.5228 32.2077 72.4512 32.4909 72.4512 32.8164C72.4512 33.1484 72.526 33.4512 72.6758 33.7246C72.8255 33.998 73.0501 34.2161 73.3496 34.3789C73.6556 34.5352 74.0299 34.6133 74.4727 34.6133C75.026 34.6133 75.5143 34.4961 75.9375 34.2617C76.3607 34.0273 76.696 33.7409 76.9434 33.4023C77.1973 33.0638 77.334 32.735 77.3535 32.416L78.125 33.2852C78.0794 33.5586 77.9557 33.8613 77.7539 34.1934C77.5521 34.5254 77.2819 34.8444 76.9434 35.1504C76.6113 35.4499 76.2142 35.7005 75.752 35.9023C75.2962 36.0977 74.7819 36.1953 74.209 36.1953C73.4928 36.1953 72.8646 36.0553 72.3242 35.7754C71.7904 35.4954 71.3737 35.1211 71.0742 34.6523C70.7812 34.1771 70.6348 33.6465 70.6348 33.0605C70.6348 32.4941 70.7454 31.9961 70.9668 31.5664C71.1882 31.1302 71.5072 30.7689 71.9238 30.4824C72.3405 30.1895 72.8418 29.9681 73.4277 29.8184C74.0137 29.6686 74.668 29.5938 75.3906 29.5938H77.4902ZM86.0547 34.7109C86.4844 34.7109 86.8815 34.623 87.2461 34.4473C87.6107 34.2715 87.9102 34.0306 88.1445 33.7246C88.3789 33.4121 88.5124 33.0573 88.5449 32.6602H90.2637C90.2311 33.2852 90.0195 33.8678 89.6289 34.4082C89.2448 34.9421 88.7402 35.375 88.1152 35.707C87.4902 36.0326 86.8034 36.1953 86.0547 36.1953C85.2604 36.1953 84.5671 36.0553 83.9746 35.7754C83.3887 35.4954 82.9004 35.1113 82.5098 34.623C82.1257 34.1348 81.8359 33.5749 81.6406 32.9434C81.4518 32.3053 81.3574 31.6315 81.3574 30.9219V30.5117C81.3574 29.8021 81.4518 29.1315 81.6406 28.5C81.8359 27.862 82.1257 27.2988 82.5098 26.8105C82.9004 26.3223 83.3887 25.9382 83.9746 25.6582C84.5671 25.3783 85.2604 25.2383 86.0547 25.2383C86.8815 25.2383 87.6042 25.4076 88.2227 25.7461C88.8411 26.0781 89.3262 26.5339 89.6777 27.1133C90.0358 27.6862 90.2311 28.3372 90.2637 29.0664H88.5449C88.5124 28.6302 88.3887 28.2363 88.1738 27.8848C87.9655 27.5332 87.679 27.2533 87.3145 27.0449C86.9564 26.8301 86.5365 26.7227 86.0547 26.7227C85.5013 26.7227 85.0358 26.8333 84.6582 27.0547C84.2871 27.2695 83.9909 27.5625 83.7695 27.9336C83.5547 28.2982 83.3984 28.7051 83.3008 29.1543C83.2096 29.597 83.1641 30.0495 83.1641 30.5117V30.9219C83.1641 31.3841 83.2096 31.8398 83.3008 32.2891C83.3919 32.7383 83.5449 33.1452 83.7598 33.5098C83.9811 33.8743 84.2773 34.1673 84.6484 34.3887C85.026 34.6035 85.4948 34.7109 86.0547 34.7109ZM96.7188 25.4336V26.8203H91.0059V25.4336H96.7188ZM92.9395 22.8652H94.7461V33.3828C94.7461 33.7409 94.8014 34.0111 94.9121 34.1934C95.0228 34.3757 95.166 34.4961 95.3418 34.5547C95.5176 34.6133 95.7064 34.6426 95.9082 34.6426C96.0579 34.6426 96.2142 34.6296 96.377 34.6035C96.5462 34.571 96.6732 34.5449 96.7578 34.5254L96.7676 36C96.6243 36.0456 96.4355 36.0879 96.2012 36.127C95.9733 36.1725 95.6966 36.1953 95.3711 36.1953C94.9284 36.1953 94.5215 36.1074 94.1504 35.9316C93.7793 35.7559 93.4831 35.4629 93.2617 35.0527C93.0469 34.6361 92.9395 34.0762 92.9395 33.373V22.8652Z" fill="white"/>
</svg>
